<svg width="217" height="57" viewBox="0 0 217 57" fill="none" xmlns="http://www.w3.org/2000/svg">
<path d="M34.9648 25.0293C34.2917 26.1178 33.3822 27.1992 32.2363 28.2734C31.0905 29.3333 29.7799 30.293 28.3047 31.1523C26.8438 31.9974 25.2467 32.6777 23.5137 33.1934C21.7806 33.7233 19.9902 33.9883 18.1426 33.9883C16.696 33.9883 15.2493 33.8594 13.8027 33.6016C12.3704 33.3438 10.9883 32.9499 9.65625 32.4199C8.33854 31.89 7.10677 31.224 5.96094 30.4219C4.82943 29.6055 3.84115 28.6458 2.99609 27.543C2.15104 26.4401 1.48503 25.1868 0.998047 23.7832C0.525391 22.3796 0.289062 20.8184 0.289062 19.0996C0.289062 17.4238 0.532552 15.834 1.01953 14.3301C1.52083 12.8262 2.21549 11.4368 3.10352 10.1621C3.99154 8.87305 5.04427 7.71289 6.26172 6.68164C7.47917 5.65039 8.8112 4.77669 10.2578 4.06055C11.7044 3.33008 13.2298 2.77148 14.834 2.38477C16.4382 1.99805 18.0781 1.80469 19.7539 1.80469C21.6016 1.80469 23.3346 2.02669 24.9531 2.4707C26.5859 2.90039 28.0111 3.51628 29.2285 4.31836C30.446 5.10612 31.4056 6.05859 32.1074 7.17578C32.8236 8.27865 33.1816 9.51042 33.1816 10.8711C33.1816 12.1315 32.888 13.3346 32.3008 14.4805C31.7135 15.612 30.9043 16.6074 29.873 17.4668C28.8561 18.3262 27.6602 19.0065 26.2852 19.5078C24.9245 20.0091 23.4707 20.2598 21.9238 20.2598C20.6777 20.2598 19.5749 20.1094 18.6152 19.8086C17.6556 19.4935 16.8535 19.0638 16.209 18.5195C15.5645 17.9753 15.0775 17.3379 14.748 16.6074C14.4186 15.877 14.2539 15.0892 14.2539 14.2441C14.2539 13.5423 14.3613 12.9049 14.5762 12.332C14.8053 11.7448 15.0488 11.2435 15.3066 10.8281C15.5788 10.4128 15.8294 10.0905 16.0586 9.86133C16.3021 9.61784 16.4382 9.48177 16.4668 9.45312C16.5384 9.38151 16.6172 9.33854 16.7031 9.32422C16.8034 9.29557 16.8965 9.28125 16.9824 9.28125C17.2116 9.28125 17.4049 9.35286 17.5625 9.49609C17.7201 9.63932 17.7988 9.82552 17.7988 10.0547C17.7988 10.3125 17.7057 10.5273 17.5195 10.6992C17.4909 10.7135 17.3906 10.8138 17.2188 11C17.0469 11.1719 16.8607 11.4154 16.6602 11.7305C16.4596 12.0312 16.2734 12.3965 16.1016 12.8262C15.944 13.2559 15.8652 13.7285 15.8652 14.2441C15.8652 15.0605 16.0443 15.748 16.4023 16.3066C16.7747 16.8652 17.2546 17.3236 17.8418 17.6816C18.429 18.0254 19.0807 18.276 19.7969 18.4336C20.513 18.5768 21.2292 18.6484 21.9453 18.6484C23.2773 18.6484 24.5234 18.4336 25.6836 18.0039C26.8581 17.5742 27.8822 17.0013 28.7559 16.2852C29.6296 15.569 30.3171 14.7454 30.8184 13.8145C31.3197 12.8835 31.5703 11.9095 31.5703 10.8926C31.5703 9.77539 31.2552 8.75846 30.625 7.8418C29.9948 6.91081 29.1426 6.12305 28.0684 5.47852C26.9941 4.81966 25.7337 4.3112 24.2871 3.95312C22.8548 3.59505 21.3223 3.41602 19.6895 3.41602C18.4577 3.41602 17.1615 3.56641 15.8008 3.86719C14.4544 4.15365 13.1224 4.59049 11.8047 5.17773C10.487 5.76497 9.22656 6.49544 8.02344 7.36914C6.83464 8.24284 5.78906 9.26693 4.88672 10.4414C3.98438 11.6016 3.26107 12.9049 2.7168 14.3516C2.18685 15.7982 1.92188 17.3809 1.92188 19.0996C1.92188 20.6608 2.13672 22.0716 2.56641 23.332C3.01042 24.5924 3.61914 25.7168 4.39258 26.7051C5.16602 27.679 6.06836 28.5241 7.09961 29.2402C8.14518 29.9564 9.26237 30.5508 10.4512 31.0234C11.6543 31.4818 12.9076 31.8255 14.2109 32.0547C15.5143 32.2695 16.8105 32.377 18.0996 32.377C19.8184 32.377 21.4727 32.1406 23.0625 31.668C24.6523 31.181 26.1204 30.5508 27.4668 29.7773C28.8275 28.9896 30.0306 28.1087 31.0762 27.1348C32.1217 26.1608 32.9525 25.1797 33.5684 24.1914C33.64 24.0625 33.7402 23.9694 33.8691 23.9121C33.998 23.8405 34.1341 23.8047 34.2773 23.8047C34.5208 23.8047 34.7142 23.8906 34.8574 24.0625C35.0007 24.2201 35.0723 24.3991 35.0723 24.5996C35.0723 24.6712 35.0651 24.7428 35.0508 24.8145C35.0365 24.8861 35.0078 24.9577 34.9648 25.0293ZM47.1035 30.6367C46.7454 30.6367 46.4303 30.6081 46.1582 30.5508C45.9434 30.9805 45.6855 31.3815 45.3848 31.7539C45.084 32.112 44.7331 32.4271 44.332 32.6992C43.9453 32.9714 43.5085 33.1862 43.0215 33.3438C42.5345 33.5013 42.0046 33.5801 41.4316 33.5801C40.7585 33.5801 40.1426 33.4583 39.584 33.2148C39.0254 32.9857 38.5384 32.6634 38.123 32.248C37.7077 31.8184 37.3854 31.3099 37.1562 30.7227C36.9271 30.1211 36.8125 29.4622 36.8125 28.7461C36.8125 27.8294 36.9772 27.0345 37.3066 26.3613C37.6361 25.6738 38.0156 25.1081 38.4453 24.6641C38.875 24.2057 39.3047 23.8691 39.7344 23.6543C40.1641 23.4251 40.4863 23.3105 40.7012 23.3105C40.9447 23.3105 41.1237 23.375 41.2383 23.5039C41.3672 23.6328 41.4316 23.8047 41.4316 24.0195C41.4316 24.263 41.3529 24.4492 41.1953 24.5781C41.0521 24.6927 40.8659 24.8073 40.6367 24.9219C40.4076 25.0365 40.1641 25.2012 39.9062 25.416C39.6484 25.6165 39.4049 25.8743 39.1758 26.1895C38.9609 26.5046 38.7819 26.877 38.6387 27.3066C38.4954 27.7363 38.4238 28.2161 38.4238 28.7461C38.4238 29.2188 38.4954 29.6628 38.6387 30.0781C38.7819 30.4792 38.9896 30.8301 39.2617 31.1309C39.5339 31.4173 39.8561 31.6465 40.2285 31.8184C40.6009 31.9759 41.0163 32.0547 41.4746 32.0547C42.291 32.0547 42.9642 31.8685 43.4941 31.4961C44.0384 31.1094 44.4538 30.6224 44.7402 30.0352C43.8952 29.5911 43.2005 28.9609 42.6562 28.1445C42.112 27.3281 41.8398 26.4115 41.8398 25.3945C41.8398 24.5781 42.0332 23.9121 42.4199 23.3965C42.821 22.8809 43.3438 22.623 43.9883 22.623C44.375 22.623 44.7402 22.7161 45.084 22.9023C45.4277 23.0885 45.7285 23.3822 45.9863 23.7832C46.2585 24.1842 46.4733 24.6999 46.6309 25.3301C46.7884 25.9603 46.8672 26.7122 46.8672 27.5859C46.8672 28.0443 46.8099 28.5241 46.6953 29.0254C46.7812 29.0397 46.8672 29.0469 46.9531 29.0469C47.0391 29.0469 47.1322 29.0469 47.2324 29.0469C47.7194 29.0469 48.1562 28.9896 48.543 28.875C48.9297 28.7604 49.2806 28.5885 49.5957 28.3594C49.9108 28.1302 50.1901 27.8366 50.4336 27.4785C50.6914 27.1204 50.9349 26.7051 51.1641 26.2324C51.207 26.1465 51.3001 26.0677 51.4434 25.9961C51.5866 25.9102 51.7298 25.8672 51.873 25.8672C52.0592 25.8672 52.2311 25.946 52.3887 26.1035C52.5605 26.2467 52.6465 26.4401 52.6465 26.6836C52.6465 26.7982 52.6178 26.9271 52.5605 27.0703C52.5033 27.1992 52.446 27.321 52.3887 27.4355C52.1452 27.8652 51.8587 28.2806 51.5293 28.6816C51.2142 29.0684 50.8346 29.4121 50.3906 29.7129C49.9609 29.9993 49.474 30.2285 48.9297 30.4004C48.3854 30.5723 47.7767 30.651 47.1035 30.6367ZM43.4297 25.2227C43.4297 25.4948 43.4655 25.7812 43.5371 26.082C43.6087 26.3828 43.7161 26.6836 43.8594 26.9844C44.0169 27.2708 44.2031 27.5501 44.418 27.8223C44.6471 28.0801 44.9121 28.3021 45.2129 28.4883C45.2559 28.1875 45.2773 27.8939 45.2773 27.6074C45.2773 27.2207 45.2487 26.8268 45.1914 26.4258C45.1341 26.0247 45.0482 25.6595 44.9336 25.3301C44.8333 24.9863 44.7044 24.7142 44.5469 24.5137C44.3893 24.2988 44.2031 24.1914 43.9883 24.1914C43.9023 24.1914 43.7878 24.2559 43.6445 24.3848C43.5013 24.5137 43.4297 24.793 43.4297 25.2227ZM56.084 31.0879C56.2988 30.6582 56.571 30.1283 56.9004 29.498C57.2441 28.8535 57.5951 28.209 57.9531 27.5645C58.3255 26.9199 58.6836 26.3112 59.0273 25.7383C59.3854 25.1654 59.6862 24.7285 59.9297 24.4277C60.3451 23.9264 60.7747 23.5684 61.2188 23.3535C61.6628 23.1387 62.071 23.0312 62.4434 23.0312C62.8158 23.0312 63.1309 23.11 63.3887 23.2676C63.6608 23.4251 63.8828 23.64 64.0547 23.9121C64.2266 24.1699 64.3555 24.4779 64.4414 24.8359C64.5273 25.1797 64.5703 25.5521 64.5703 25.9531C64.5703 26.1823 64.556 26.4831 64.5273 26.8555C64.513 27.2279 64.4915 27.6289 64.4629 28.0586C64.4486 28.4883 64.4271 28.9323 64.3984 29.3906C64.3841 29.849 64.3698 30.2786 64.3555 30.6797C64.5703 30.25 64.8138 29.7773 65.0859 29.2617C65.3581 28.7318 65.6302 28.209 65.9023 27.6934C66.1888 27.1777 66.4609 26.6979 66.7188 26.2539C66.9766 25.7956 67.2129 25.4232 67.4277 25.1367C68.0436 24.2917 68.6165 23.7259 69.1465 23.4395C69.6908 23.153 70.1706 23.0098 70.5859 23.0098C71.0729 23.0098 71.474 23.1029 71.7891 23.2891C72.1042 23.4609 72.3477 23.6901 72.5195 23.9766C72.7057 24.2487 72.8346 24.5566 72.9062 24.9004C72.9779 25.2441 73.0137 25.5736 73.0137 25.8887C73.0137 26.3757 72.9779 26.8841 72.9062 27.4141C72.8346 27.944 72.7988 28.5742 72.7988 29.3047C72.7988 29.6055 72.8132 29.9062 72.8418 30.207C72.8704 30.5078 72.9277 30.7728 73.0137 31.002C73.1139 31.2311 73.2643 31.4173 73.4648 31.5605C73.6654 31.7038 73.9375 31.7754 74.2812 31.7754C74.6536 31.7754 75.0189 31.6823 75.377 31.4961C75.735 31.2956 76.0788 31.0378 76.4082 30.7227C76.7376 30.4076 77.0456 30.0495 77.332 29.6484C77.6328 29.2474 77.9049 28.8464 78.1484 28.4453C78.3919 28.0443 78.6068 27.6647 78.793 27.3066C78.9792 26.9342 79.1296 26.6191 79.2441 26.3613C79.3158 26.2038 79.416 26.082 79.5449 25.9961C79.6738 25.9102 79.8171 25.8672 79.9746 25.8672C80.2181 25.8672 80.4115 25.9603 80.5547 26.1465C80.7122 26.3184 80.791 26.5046 80.791 26.7051C80.791 26.8053 80.7695 26.9056 80.7266 27.0059C80.6693 27.1204 80.5547 27.3639 80.3828 27.7363C80.2109 28.0944 79.9818 28.5098 79.6953 28.9824C79.4089 29.4408 79.0723 29.9277 78.6855 30.4434C78.3132 30.959 77.8978 31.4388 77.4395 31.8828C76.9811 32.3125 76.487 32.6706 75.957 32.957C75.4271 33.2292 74.8685 33.3652 74.2812 33.3652C73.651 33.3652 73.1354 33.2507 72.7344 33.0215C72.3477 32.8066 72.0326 32.513 71.7891 32.1406C71.5599 31.7682 71.4023 31.3385 71.3164 30.8516C71.2305 30.3646 71.1875 29.8561 71.1875 29.3262C71.1875 28.6243 71.2233 27.9798 71.2949 27.3926C71.3665 26.791 71.4023 26.3255 71.4023 25.9961C71.4023 25.638 71.3665 25.3659 71.2949 25.1797C71.2376 24.9935 71.1589 24.8646 71.0586 24.793C70.9727 24.707 70.8867 24.6641 70.8008 24.6641C70.7148 24.6497 70.6504 24.6426 70.6074 24.6426C70.2637 24.6426 69.8984 24.8359 69.5117 25.2227C69.1393 25.5951 68.7526 26.0964 68.3516 26.7266C67.9505 27.3568 67.5352 28.0729 67.1055 28.875C66.6901 29.6771 66.2676 30.4935 65.8379 31.3242C65.5944 31.7826 65.3867 32.1621 65.2148 32.4629C65.0573 32.7637 64.8997 33 64.7422 33.1719C64.599 33.3438 64.4557 33.4655 64.3125 33.5371C64.1693 33.6087 64.0117 33.6445 63.8398 33.6445C63.4674 33.6445 63.181 33.5156 62.9805 33.2578C62.7943 33 62.7012 32.6634 62.7012 32.248C62.7012 32.0332 62.7083 31.7467 62.7227 31.3887C62.737 31.0306 62.7513 30.6367 62.7656 30.207C62.7799 29.7773 62.8014 29.3333 62.8301 28.875C62.8587 28.4167 62.8802 27.9798 62.8945 27.5645C62.9089 27.1348 62.9232 26.7552 62.9375 26.4258C62.9518 26.0964 62.959 25.8457 62.959 25.6738C62.959 25.3014 62.8945 25.0365 62.7656 24.8789C62.6367 24.707 62.4863 24.6211 62.3145 24.6211C62.1569 24.6211 61.9779 24.6784 61.7773 24.793C61.5911 24.9076 61.3691 25.1296 61.1113 25.459C60.9108 25.7168 60.653 26.0964 60.3379 26.5977C60.0371 27.0846 59.7148 27.6289 59.3711 28.2305C59.0273 28.832 58.6836 29.4479 58.3398 30.0781C58.0104 30.7083 57.724 31.2741 57.4805 31.7754C57.1797 32.377 56.8789 32.7852 56.5781 33C56.2773 33.2292 55.9837 33.3438 55.6973 33.3438C55.2819 33.3438 54.974 33.222 54.7734 32.9785C54.5729 32.7207 54.4727 32.3841 54.4727 31.9688C54.4727 31.9258 54.4798 31.668 54.4941 31.1953C54.5228 30.7227 54.5514 30.1497 54.5801 29.4766C54.6087 28.7891 54.6374 28.0586 54.666 27.2852C54.709 26.5117 54.7448 25.7884 54.7734 25.1152C54.7878 24.7572 54.7734 24.4277 54.7305 24.127C54.6875 23.8262 54.6302 23.6471 54.5586 23.5898C54.444 23.6185 54.2148 23.8835 53.8711 24.3848C53.5417 24.8861 53.1191 25.7598 52.6035 27.0059C52.5319 27.1634 52.4245 27.2852 52.2812 27.3711C52.138 27.457 51.9876 27.5 51.8301 27.5C51.5866 27.5 51.3932 27.4212 51.25 27.2637C51.1068 27.0918 51.0352 26.8984 51.0352 26.6836C51.0352 26.5833 51.0566 26.4759 51.0996 26.3613C51.7441 24.8288 52.36 23.7044 52.9473 22.9883C53.5345 22.2578 54.1074 21.8926 54.666 21.8926C54.9954 21.8926 55.2676 21.9714 55.4824 22.1289C55.7116 22.2721 55.8906 22.4655 56.0195 22.709C56.1484 22.9382 56.2415 23.2031 56.2988 23.5039C56.3561 23.8047 56.3848 24.0983 56.3848 24.3848C56.3848 25.6595 56.349 26.8268 56.2773 27.8867C56.2201 28.9466 56.1556 30.0137 56.084 31.0879ZM82.7676 16.1348C82.7676 16.679 82.5742 17.1445 82.1875 17.5312C81.8151 17.9036 81.3568 18.0898 80.8125 18.0898C80.2682 18.0898 79.8027 17.9036 79.416 17.5312C79.0436 17.1445 78.8574 16.679 78.8574 16.1348C78.8574 15.8626 78.9076 15.612 79.0078 15.3828C79.1081 15.1393 79.2441 14.9316 79.416 14.7598C79.6022 14.5736 79.8099 14.4303 80.0391 14.3301C80.2826 14.2298 80.5404 14.1797 80.8125 14.1797C81.0846 14.1797 81.3353 14.2298 81.5645 14.3301C81.8079 14.4303 82.0156 14.5736 82.1875 14.7598C82.3737 14.9316 82.5169 15.1393 82.6172 15.3828C82.7174 15.612 82.7676 15.8626 82.7676 16.1348ZM79.2871 28.7246C79.2871 26.6621 79.416 24.6068 79.6738 22.5586C79.7025 22.3581 79.7884 22.1862 79.9316 22.043C80.0892 21.8854 80.2897 21.8066 80.5332 21.8066C80.748 21.8066 80.9271 21.8926 81.0703 22.0645C81.2135 22.222 81.2852 22.4082 81.2852 22.623C81.2852 22.709 81.2637 22.9668 81.2207 23.3965C81.1921 23.8262 81.1491 24.3418 81.0918 24.9434C81.0488 25.5306 81.0059 26.1608 80.9629 26.834C80.9342 27.4928 80.9199 28.1016 80.9199 28.6602C80.9199 29.4193 80.9915 30.0352 81.1348 30.5078C81.2923 30.9661 81.4857 31.3242 81.7148 31.582C81.9583 31.8398 82.209 32.0117 82.4668 32.0977C82.7389 32.1836 82.9967 32.2266 83.2402 32.2266C83.6413 32.2266 84.0566 32.0833 84.4863 31.7969C84.916 31.5104 85.3529 31.1094 85.7969 30.5938C86.2552 30.0781 86.7135 29.4622 87.1719 28.7461C87.6302 28.0156 88.0814 27.2064 88.5254 26.3184C88.597 26.1751 88.6973 26.0677 88.8262 25.9961C88.9551 25.9102 89.0983 25.8672 89.2559 25.8672C89.485 25.8672 89.6712 25.9531 89.8145 26.125C89.972 26.2969 90.0508 26.4831 90.0508 26.6836C90.0508 26.8268 90.0221 26.9486 89.9648 27.0488C89.793 27.3783 89.5781 27.7793 89.3203 28.252C89.0625 28.7246 88.7689 29.2116 88.4395 29.7129C88.11 30.2142 87.7448 30.7155 87.3438 31.2168C86.957 31.7038 86.5417 32.1478 86.0977 32.5488C85.6536 32.9355 85.1882 33.2507 84.7012 33.4941C84.2142 33.7376 83.7201 33.8594 83.2188 33.8594C82.5742 33.8594 82.0085 33.7233 81.5215 33.4512C81.0345 33.179 80.6191 32.8138 80.2754 32.3555C79.946 31.8971 79.6953 31.36 79.5234 30.7441C79.3659 30.1139 79.2871 29.4408 79.2871 28.7246ZM81.5645 16.1348C81.5645 15.9342 81.4857 15.7624 81.3281 15.6191C81.1849 15.4616 81.013 15.3828 80.8125 15.3828C80.612 15.3828 80.4401 15.4616 80.2969 15.6191C80.1536 15.7624 80.082 15.9342 80.082 16.1348C80.082 16.3353 80.1536 16.5072 80.2969 16.6504C80.4401 16.7936 80.612 16.8652 80.8125 16.8652C81.013 16.8652 81.1849 16.7936 81.3281 16.6504C81.4857 16.5072 81.5645 16.3353 81.5645 16.1348ZM93.2734 31.0664C93.5026 30.5938 93.7676 30.0781 94.0684 29.5195C94.3691 28.9466 94.6914 28.3737 95.0352 27.8008C95.3789 27.2135 95.737 26.6335 96.1094 26.0605C96.4961 25.4876 96.8971 24.9434 97.3125 24.4277C97.7279 23.9264 98.1432 23.5684 98.5586 23.3535C98.9883 23.1243 99.3893 23.0098 99.7617 23.0098C100.507 23.0098 101.058 23.2819 101.416 23.8262C101.774 24.3704 101.953 25.0436 101.953 25.8457C101.953 26.0319 101.939 26.2611 101.91 26.5332C101.896 26.791 101.874 27.0703 101.846 27.3711C101.831 27.6719 101.81 27.9798 101.781 28.2949C101.767 28.5957 101.76 28.8822 101.76 29.1543C101.76 29.498 101.774 29.8275 101.803 30.1426C101.846 30.4577 101.917 30.737 102.018 30.9805C102.118 31.2096 102.261 31.3958 102.447 31.5391C102.633 31.668 102.877 31.7324 103.178 31.7324C103.722 31.7324 104.252 31.5247 104.768 31.1094C105.283 30.6797 105.756 30.1784 106.186 29.6055C106.63 29.0182 107.009 28.4238 107.324 27.8223C107.654 27.2207 107.897 26.7337 108.055 26.3613C108.126 26.2038 108.227 26.082 108.355 25.9961C108.499 25.9102 108.649 25.8672 108.807 25.8672C109.05 25.8672 109.243 25.9603 109.387 26.1465C109.544 26.3184 109.623 26.5046 109.623 26.7051C109.623 26.8053 109.602 26.9056 109.559 27.0059C109.501 27.1204 109.387 27.3568 109.215 27.7148C109.043 28.0729 108.814 28.4883 108.527 28.9609C108.255 29.4193 107.933 29.9134 107.561 30.4434C107.188 30.959 106.773 31.4316 106.314 31.8613C105.87 32.291 105.383 32.6491 104.854 32.9355C104.338 33.222 103.794 33.3652 103.221 33.3652C102.576 33.3652 102.053 33.2435 101.652 33C101.251 32.7422 100.936 32.4128 100.707 32.0117C100.478 31.5964 100.32 31.1452 100.234 30.6582C100.163 30.1569 100.127 29.6556 100.127 29.1543C100.127 28.9395 100.134 28.696 100.148 28.4238C100.177 28.1517 100.206 27.8652 100.234 27.5645C100.277 27.2637 100.306 26.9629 100.32 26.6621C100.349 26.3613 100.363 26.0749 100.363 25.8027C100.363 25.3444 100.292 25.0365 100.148 24.8789C100.005 24.707 99.8763 24.6211 99.7617 24.6211C99.5326 24.6211 99.2676 24.7572 98.9668 25.0293C98.6803 25.2871 98.3724 25.6309 98.043 26.0605C97.7279 26.4902 97.3984 26.9772 97.0547 27.5215C96.7253 28.0514 96.4102 28.5814 96.1094 29.1113C95.8229 29.6413 95.5508 30.1497 95.293 30.6367C95.0495 31.1094 94.8561 31.5033 94.7129 31.8184C94.4264 32.4199 94.14 32.821 93.8535 33.0215C93.5671 33.2363 93.2734 33.3438 92.9727 33.3438C92.5573 33.3438 92.2207 33.222 91.9629 32.9785C91.7194 32.7207 91.5977 32.3626 91.5977 31.9043C91.5977 31.804 91.612 31.6107 91.6406 31.3242C91.6693 31.0234 91.7051 30.6725 91.748 30.2715C91.791 29.8561 91.834 29.4121 91.877 28.9395C91.9199 28.4668 91.9629 28.0013 92.0059 27.543C92.0488 27.0703 92.0846 26.6335 92.1133 26.2324C92.1419 25.8314 92.1562 25.4948 92.1562 25.2227C92.1562 24.8646 92.1419 24.5208 92.1133 24.1914C92.0846 23.862 92.0273 23.6615 91.9414 23.5898C91.8125 23.6328 91.5833 23.9049 91.2539 24.4062C90.9245 24.8932 90.502 25.7598 89.9863 27.0059C89.9147 27.1634 89.8073 27.2852 89.6641 27.3711C89.5208 27.457 89.3704 27.5 89.2129 27.5C88.9694 27.5 88.776 27.4212 88.6328 27.2637C88.4896 27.0918 88.418 26.8984 88.418 26.6836C88.418 26.5833 88.4395 26.4759 88.4824 26.3613C89.127 24.8288 89.7285 23.7044 90.2871 22.9883C90.86 22.2578 91.4258 21.8926 91.9844 21.8926C92.3138 21.8926 92.5931 21.9785 92.8223 22.1504C93.0514 22.3079 93.2305 22.5228 93.3594 22.7949C93.5026 23.0671 93.6029 23.3678 93.6602 23.6973C93.7318 24.0267 93.7676 24.3633 93.7676 24.707C93.7676 24.9648 93.7461 25.3659 93.7031 25.9102C93.6745 26.4544 93.6315 27.0417 93.5742 27.6719C93.5169 28.2878 93.4596 28.9036 93.4023 29.5195C93.3594 30.1354 93.3164 30.651 93.2734 31.0664ZM115.875 35.1055C118.568 31.5964 120.437 28.6816 121.482 26.3613C121.554 26.2038 121.647 26.0892 121.762 26.0176C121.891 25.9316 122.034 25.8887 122.191 25.8887C122.435 25.8887 122.635 25.9746 122.793 26.1465C122.951 26.304 123.029 26.4902 123.029 26.7051C123.029 26.8053 123.008 26.9056 122.965 27.0059C122.335 28.4382 121.439 30.0352 120.279 31.7969C119.119 33.5586 117.651 35.5495 115.875 37.7695C115.875 38.6719 115.882 39.5742 115.896 40.4766C115.911 41.3789 115.918 42.3672 115.918 43.4414C115.918 44.5156 115.889 45.5755 115.832 46.6211C115.789 47.681 115.703 48.6836 115.574 49.6289C115.445 50.5885 115.266 51.4694 115.037 52.2715C114.822 53.0879 114.536 53.7897 114.178 54.377C113.834 54.9785 113.411 55.444 112.91 55.7734C112.423 56.1172 111.843 56.2891 111.17 56.2891C110.21 56.2891 109.473 55.9238 108.957 55.1934C108.441 54.4629 108.184 53.4245 108.184 52.0781C108.184 51.362 108.248 50.5814 108.377 49.7363C108.52 48.9056 108.721 48.0462 108.979 47.1582C109.236 46.2702 109.544 45.3678 109.902 44.4512C110.275 43.5488 110.683 42.668 111.127 41.8086C111.571 40.9492 112.051 40.1257 112.566 39.3379C113.096 38.5501 113.655 37.834 114.242 37.1895C114.257 36.1868 114.264 35.1914 114.264 34.2031C114.278 33.2148 114.299 32.3053 114.328 31.4746C113.898 32.0189 113.383 32.4486 112.781 32.7637C112.194 33.0788 111.607 33.2363 111.02 33.2363C110.518 33.2363 110.06 33.1432 109.645 32.957C109.243 32.7565 108.9 32.4844 108.613 32.1406C108.327 31.7826 108.105 31.3672 107.947 30.8945C107.79 30.4219 107.711 29.9062 107.711 29.3477C107.711 28.2305 107.897 27.2493 108.27 26.4043C108.656 25.5449 109.143 24.8288 109.73 24.2559C110.318 23.6829 110.962 23.2533 111.664 22.9668C112.38 22.6803 113.068 22.5371 113.727 22.5371C114.171 22.5371 114.579 22.5944 114.951 22.709C115.324 22.8236 115.639 22.9525 115.896 23.0957C116.169 23.2389 116.376 23.375 116.52 23.5039C116.663 23.6328 116.742 23.7044 116.756 23.7188C116.913 23.8906 116.992 24.084 116.992 24.2988C116.992 24.5137 116.913 24.707 116.756 24.8789C116.598 25.0365 116.412 25.1152 116.197 25.1152C115.997 25.1152 115.803 25.0365 115.617 24.8789C115.56 24.8359 115.481 24.7786 115.381 24.707C115.295 24.6211 115.173 24.5352 115.016 24.4492C114.872 24.3633 114.693 24.2917 114.479 24.2344C114.278 24.1771 114.035 24.1484 113.748 24.1484C113.318 24.1484 112.846 24.2487 112.33 24.4492C111.814 24.6354 111.335 24.9362 110.891 25.3516C110.447 25.7669 110.074 26.304 109.773 26.9629C109.473 27.6074 109.322 28.388 109.322 29.3047C109.322 29.9922 109.473 30.5508 109.773 30.9805C110.074 31.3958 110.54 31.6035 111.17 31.6035C111.471 31.6035 111.786 31.5176 112.115 31.3457C112.459 31.1738 112.788 30.9089 113.104 30.5508C113.419 30.1927 113.691 29.7415 113.92 29.1973C114.163 28.653 114.335 28.0085 114.436 27.2637C114.464 27.0632 114.557 26.8984 114.715 26.7695C114.872 26.6263 115.059 26.5547 115.273 26.5547C115.517 26.5547 115.703 26.6406 115.832 26.8125C115.975 26.9844 116.047 27.1777 116.047 27.3926C116.047 27.4069 116.04 27.6289 116.025 28.0586C116.011 28.474 115.997 29.0326 115.982 29.7344C115.968 30.4362 115.947 31.2526 115.918 32.1836C115.904 33.1003 115.889 34.0742 115.875 35.1055ZM114.242 39.8105C113.569 40.7415 112.96 41.7513 112.416 42.8398C111.872 43.9427 111.406 45.0527 111.02 46.1699C110.633 47.2871 110.332 48.3685 110.117 49.4141C109.917 50.474 109.816 51.4193 109.816 52.25C109.816 52.7799 109.859 53.2025 109.945 53.5176C110.046 53.8327 110.16 54.0762 110.289 54.248C110.432 54.4199 110.583 54.5345 110.74 54.5918C110.912 54.6491 111.07 54.6777 111.213 54.6777C111.657 54.6777 112.044 54.4987 112.373 54.1406C112.702 53.7826 112.982 53.3027 113.211 52.7012C113.44 52.1139 113.626 51.4336 113.77 50.6602C113.913 49.8867 114.02 49.0846 114.092 48.2539C114.163 47.4375 114.214 46.6211 114.242 45.8047C114.271 44.9883 114.285 44.2363 114.285 43.5488C114.285 42.9329 114.285 42.3171 114.285 41.7012C114.285 41.0853 114.271 40.4551 114.242 39.8105ZM169.328 10.4414C169.285 10.6419 169.192 10.7995 169.049 10.9141C168.906 11.0286 168.748 11.0859 168.576 11.0859C168.318 11.0859 168.111 11.0072 167.953 10.8496C167.796 10.6777 167.717 10.4844 167.717 10.2695C167.717 10.0547 167.738 9.84701 167.781 9.64648C167.824 9.43164 167.846 9.22396 167.846 9.02344C167.846 7.97786 167.523 7.03971 166.879 6.20898C166.234 5.37826 165.318 4.68359 164.129 4.125C162.954 3.55208 161.522 3.11523 159.832 2.81445C158.142 2.51367 156.258 2.36328 154.182 2.36328C152.592 2.36328 150.988 2.4707 149.369 2.68555C147.765 2.88607 146.218 3.18685 144.729 3.58789C143.253 3.97461 141.871 4.46875 140.582 5.07031C139.293 5.65755 138.169 6.34505 137.209 7.13281C136.264 7.90625 135.519 8.77279 134.975 9.73242C134.43 10.6777 134.158 11.7161 134.158 12.8477C134.158 13.7214 134.344 14.4948 134.717 15.168C135.104 15.8268 135.626 16.4069 136.285 16.9082C136.944 17.3952 137.717 17.8177 138.605 18.1758C139.508 18.5195 140.482 18.8132 141.527 19.0566C142.573 19.2858 143.661 19.4792 144.793 19.6367C145.924 19.7799 147.063 19.9017 148.209 20.002L151.518 20.2812C153.165 20.4245 154.64 20.5749 155.943 20.7324C157.247 20.89 158.393 21.0905 159.381 21.334C161.028 21.7493 162.245 22.3438 163.033 23.1172C163.821 23.8906 164.215 24.9219 164.215 26.2109C164.215 27.457 163.871 28.5527 163.184 29.498C162.496 30.4434 161.558 31.2383 160.369 31.8828C159.18 32.5273 157.791 33.0143 156.201 33.3438C154.611 33.6732 152.907 33.8379 151.088 33.8379C149.111 33.8379 147.371 33.7018 145.867 33.4297C144.378 33.1719 143.124 32.8854 142.107 32.5703C141.105 32.2409 140.339 31.9401 139.809 31.668C139.279 31.3958 138.992 31.2454 138.949 31.2168C138.691 31.0736 138.562 30.8444 138.562 30.5293C138.562 30.2858 138.648 30.0924 138.82 29.9492C138.992 29.7917 139.178 29.7129 139.379 29.7129C139.536 29.7129 139.68 29.7559 139.809 29.8418C139.823 29.8418 140.066 29.9707 140.539 30.2285C141.026 30.472 141.742 30.7441 142.688 31.0449C143.647 31.3457 144.829 31.6178 146.232 31.8613C147.636 32.1048 149.269 32.2266 151.131 32.2266C152.979 32.2266 154.611 32.0762 156.029 31.7754C157.447 31.4746 158.636 31.0592 159.596 30.5293C160.57 29.985 161.3 29.3548 161.787 28.6387C162.288 27.9082 162.539 27.1204 162.539 26.2754C162.539 25.7741 162.446 25.3444 162.26 24.9863C162.088 24.6139 161.844 24.2988 161.529 24.041C161.214 23.7689 160.835 23.5397 160.391 23.3535C159.961 23.1673 159.488 23.0098 158.973 22.8809C158.428 22.7376 157.841 22.6159 157.211 22.5156C156.595 22.4154 155.958 22.3294 155.299 22.2578C154.64 22.1862 153.974 22.1217 153.301 22.0645C152.642 22.0072 151.99 21.9499 151.346 21.8926L148.037 21.6133C145.43 21.3984 143.153 21.069 141.205 20.625C139.271 20.1667 137.66 19.5866 136.371 18.8848C135.082 18.1686 134.115 17.3164 133.471 16.3281C132.826 15.3398 132.504 14.1868 132.504 12.8691C132.504 11.5228 132.805 10.291 133.406 9.17383C134.022 8.04232 134.853 7.02539 135.898 6.12305C136.958 5.2207 138.19 4.4401 139.594 3.78125C141.012 3.10807 142.523 2.54948 144.127 2.10547C145.731 1.66146 147.393 1.33203 149.111 1.11719C150.83 0.888021 152.52 0.773438 154.182 0.773438C156.258 0.773438 158.063 0.902344 159.596 1.16016C161.143 1.40365 162.46 1.72591 163.549 2.12695C164.652 2.51367 165.554 2.95768 166.256 3.45898C166.958 3.96029 167.523 4.45443 167.953 4.94141C168.97 6.13021 169.479 7.48372 169.479 9.00195C169.479 9.50326 169.428 9.98307 169.328 10.4414ZM177.213 30.6367C176.855 30.6367 176.54 30.6081 176.268 30.5508C176.053 30.9805 175.795 31.3815 175.494 31.7539C175.193 32.112 174.842 32.4271 174.441 32.6992C174.055 32.9714 173.618 33.1862 173.131 33.3438C172.644 33.5013 172.114 33.5801 171.541 33.5801C170.868 33.5801 170.252 33.4583 169.693 33.2148C169.135 32.9857 168.648 32.6634 168.232 32.248C167.817 31.8184 167.495 31.3099 167.266 30.7227C167.036 30.1211 166.922 29.4622 166.922 28.7461C166.922 27.8294 167.087 27.0345 167.416 26.3613C167.745 25.6738 168.125 25.1081 168.555 24.6641C168.984 24.2057 169.414 23.8691 169.844 23.6543C170.273 23.4251 170.596 23.3105 170.811 23.3105C171.054 23.3105 171.233 23.375 171.348 23.5039C171.477 23.6328 171.541 23.8047 171.541 24.0195C171.541 24.263 171.462 24.4492 171.305 24.5781C171.161 24.6927 170.975 24.8073 170.746 24.9219C170.517 25.0365 170.273 25.2012 170.016 25.416C169.758 25.6165 169.514 25.8743 169.285 26.1895C169.07 26.5046 168.891 26.877 168.748 27.3066C168.605 27.7363 168.533 28.2161 168.533 28.7461C168.533 29.2188 168.605 29.6628 168.748 30.0781C168.891 30.4792 169.099 30.8301 169.371 31.1309C169.643 31.4173 169.965 31.6465 170.338 31.8184C170.71 31.9759 171.126 32.0547 171.584 32.0547C172.4 32.0547 173.074 31.8685 173.604 31.4961C174.148 31.1094 174.563 30.6224 174.85 30.0352C174.005 29.5911 173.31 28.9609 172.766 28.1445C172.221 27.3281 171.949 26.4115 171.949 25.3945C171.949 24.5781 172.143 23.9121 172.529 23.3965C172.93 22.8809 173.453 22.623 174.098 22.623C174.484 22.623 174.85 22.7161 175.193 22.9023C175.537 23.0885 175.838 23.3822 176.096 23.7832C176.368 24.1842 176.583 24.6999 176.74 25.3301C176.898 25.9603 176.977 26.7122 176.977 27.5859C176.977 28.0443 176.919 28.5241 176.805 29.0254C176.891 29.0397 176.977 29.0469 177.062 29.0469C177.148 29.0469 177.242 29.0469 177.342 29.0469C177.829 29.0469 178.266 28.9896 178.652 28.875C179.039 28.7604 179.39 28.5885 179.705 28.3594C180.02 28.1302 180.299 27.8366 180.543 27.4785C180.801 27.1204 181.044 26.7051 181.273 26.2324C181.316 26.1465 181.41 26.0677 181.553 25.9961C181.696 25.9102 181.839 25.8672 181.982 25.8672C182.169 25.8672 182.34 25.946 182.498 26.1035C182.67 26.2467 182.756 26.4401 182.756 26.6836C182.756 26.7982 182.727 26.9271 182.67 27.0703C182.613 27.1992 182.555 27.321 182.498 27.4355C182.255 27.8652 181.968 28.2806 181.639 28.6816C181.324 29.0684 180.944 29.4121 180.5 29.7129C180.07 29.9993 179.583 30.2285 179.039 30.4004C178.495 30.5723 177.886 30.651 177.213 30.6367ZM173.539 25.2227C173.539 25.4948 173.575 25.7812 173.646 26.082C173.718 26.3828 173.826 26.6836 173.969 26.9844C174.126 27.2708 174.312 27.5501 174.527 27.8223C174.757 28.0801 175.021 28.3021 175.322 28.4883C175.365 28.1875 175.387 27.8939 175.387 27.6074C175.387 27.2207 175.358 26.8268 175.301 26.4258C175.243 26.0247 175.158 25.6595 175.043 25.3301C174.943 24.9863 174.814 24.7142 174.656 24.5137C174.499 24.2988 174.312 24.1914 174.098 24.1914C174.012 24.1914 173.897 24.2559 173.754 24.3848C173.611 24.5137 173.539 24.793 173.539 25.2227ZM191.135 30.6367C190.777 30.6367 190.462 30.6081 190.189 30.5508C189.975 30.9805 189.717 31.3815 189.416 31.7539C189.115 32.112 188.764 32.4271 188.363 32.6992C187.977 32.9714 187.54 33.1862 187.053 33.3438C186.566 33.5013 186.036 33.5801 185.463 33.5801C184.79 33.5801 184.174 33.4583 183.615 33.2148C183.057 32.9857 182.57 32.6634 182.154 32.248C181.739 31.8184 181.417 31.3099 181.188 30.7227C180.958 30.1211 180.844 29.4622 180.844 28.7461C180.844 27.8294 181.008 27.0345 181.338 26.3613C181.667 25.6738 182.047 25.1081 182.477 24.6641C182.906 24.2057 183.336 23.8691 183.766 23.6543C184.195 23.4251 184.518 23.3105 184.732 23.3105C184.976 23.3105 185.155 23.375 185.27 23.5039C185.398 23.6328 185.463 23.8047 185.463 24.0195C185.463 24.263 185.384 24.4492 185.227 24.5781C185.083 24.6927 184.897 24.8073 184.668 24.9219C184.439 25.0365 184.195 25.2012 183.938 25.416C183.68 25.6165 183.436 25.8743 183.207 26.1895C182.992 26.5046 182.813 26.877 182.67 27.3066C182.527 27.7363 182.455 28.2161 182.455 28.7461C182.455 29.2188 182.527 29.6628 182.67 30.0781C182.813 30.4792 183.021 30.8301 183.293 31.1309C183.565 31.4173 183.887 31.6465 184.26 31.8184C184.632 31.9759 185.048 32.0547 185.506 32.0547C186.322 32.0547 186.995 31.8685 187.525 31.4961C188.07 31.1094 188.485 30.6224 188.771 30.0352C187.926 29.5911 187.232 28.9609 186.688 28.1445C186.143 27.3281 185.871 26.4115 185.871 25.3945C185.871 24.5781 186.064 23.9121 186.451 23.3965C186.852 22.8809 187.375 22.623 188.02 22.623C188.406 22.623 188.771 22.7161 189.115 22.9023C189.459 23.0885 189.76 23.3822 190.018 23.7832C190.29 24.1842 190.505 24.6999 190.662 25.3301C190.82 25.9603 190.898 26.7122 190.898 27.5859C190.898 28.0443 190.841 28.5241 190.727 29.0254C190.812 29.0397 190.898 29.0469 190.984 29.0469C191.07 29.0469 191.163 29.0469 191.264 29.0469C191.751 29.0469 192.188 28.9896 192.574 28.875C192.961 28.7604 193.312 28.5885 193.627 28.3594C193.942 28.1302 194.221 27.8366 194.465 27.4785C194.723 27.1204 194.966 26.7051 195.195 26.2324C195.238 26.1465 195.331 26.0677 195.475 25.9961C195.618 25.9102 195.761 25.8672 195.904 25.8672C196.09 25.8672 196.262 25.946 196.42 26.1035C196.592 26.2467 196.678 26.4401 196.678 26.6836C196.678 26.7982 196.649 26.9271 196.592 27.0703C196.535 27.1992 196.477 27.321 196.42 27.4355C196.176 27.8652 195.89 28.2806 195.561 28.6816C195.245 29.0684 194.866 29.4121 194.422 29.7129C193.992 29.9993 193.505 30.2285 192.961 30.4004C192.417 30.5723 191.808 30.651 191.135 30.6367ZM187.461 25.2227C187.461 25.4948 187.497 25.7812 187.568 26.082C187.64 26.3828 187.747 26.6836 187.891 26.9844C188.048 27.2708 188.234 27.5501 188.449 27.8223C188.678 28.0801 188.943 28.3021 189.244 28.4883C189.287 28.1875 189.309 27.8939 189.309 27.6074C189.309 27.2207 189.28 26.8268 189.223 26.4258C189.165 26.0247 189.079 25.6595 188.965 25.3301C188.865 24.9863 188.736 24.7142 188.578 24.5137C188.421 24.2988 188.234 24.1914 188.02 24.1914C187.934 24.1914 187.819 24.2559 187.676 24.3848C187.533 24.5137 187.461 24.793 187.461 25.2227ZM199.922 31.0664C200.151 30.5938 200.416 30.0781 200.717 29.5195C201.018 28.9466 201.34 28.3737 201.684 27.8008C202.027 27.2135 202.385 26.6335 202.758 26.0605C203.145 25.4876 203.546 24.9434 203.961 24.4277C204.376 23.9264 204.792 23.5684 205.207 23.3535C205.637 23.1243 206.038 23.0098 206.41 23.0098C207.155 23.0098 207.706 23.2819 208.064 23.8262C208.423 24.3704 208.602 25.0436 208.602 25.8457C208.602 26.0319 208.587 26.2611 208.559 26.5332C208.544 26.791 208.523 27.0703 208.494 27.3711C208.48 27.6719 208.458 27.9798 208.43 28.2949C208.415 28.5957 208.408 28.8822 208.408 29.1543C208.408 29.498 208.423 29.8275 208.451 30.1426C208.494 30.4577 208.566 30.737 208.666 30.9805C208.766 31.2096 208.91 31.3958 209.096 31.5391C209.282 31.668 209.525 31.7324 209.826 31.7324C210.37 31.7324 210.9 31.5247 211.416 31.1094C211.932 30.6797 212.404 30.1784 212.834 29.6055C213.278 29.0182 213.658 28.4238 213.973 27.8223C214.302 27.2207 214.546 26.7337 214.703 26.3613C214.775 26.2038 214.875 26.082 215.004 25.9961C215.147 25.9102 215.298 25.8672 215.455 25.8672C215.699 25.8672 215.892 25.9603 216.035 26.1465C216.193 26.3184 216.271 26.5046 216.271 26.7051C216.271 26.8053 216.25 26.9056 216.207 27.0059C216.15 27.1204 216.035 27.3568 215.863 27.7148C215.691 28.0729 215.462 28.4883 215.176 28.9609C214.904 29.4193 214.581 29.9134 214.209 30.4434C213.837 30.959 213.421 31.4316 212.963 31.8613C212.519 32.291 212.032 32.6491 211.502 32.9355C210.986 33.222 210.442 33.3652 209.869 33.3652C209.225 33.3652 208.702 33.2435 208.301 33C207.9 32.7422 207.585 32.4128 207.355 32.0117C207.126 31.5964 206.969 31.1452 206.883 30.6582C206.811 30.1569 206.775 29.6556 206.775 29.1543C206.775 28.9395 206.783 28.696 206.797 28.4238C206.826 28.1517 206.854 27.8652 206.883 27.5645C206.926 27.2637 206.954 26.9629 206.969 26.6621C206.997 26.3613 207.012 26.0749 207.012 25.8027C207.012 25.3444 206.94 25.0365 206.797 24.8789C206.654 24.707 206.525 24.6211 206.41 24.6211C206.181 24.6211 205.916 24.7572 205.615 25.0293C205.329 25.2871 205.021 25.6309 204.691 26.0605C204.376 26.4902 204.047 26.9772 203.703 27.5215C203.374 28.0514 203.059 28.5814 202.758 29.1113C202.471 29.6413 202.199 30.1497 201.941 30.6367C201.698 31.1094 201.505 31.5033 201.361 31.8184C201.075 32.4199 200.788 32.821 200.502 33.0215C200.215 33.2363 199.922 33.3438 199.621 33.3438C199.206 33.3438 198.869 33.222 198.611 32.9785C198.368 32.7207 198.246 32.3626 198.246 31.9043C198.246 31.804 198.26 31.6107 198.289 31.3242C198.318 31.0234 198.354 30.6725 198.396 30.2715C198.439 29.8561 198.482 29.4121 198.525 28.9395C198.568 28.4668 198.611 28.0013 198.654 27.543C198.697 27.0703 198.733 26.6335 198.762 26.2324C198.79 25.8314 198.805 25.4948 198.805 25.2227C198.805 24.8646 198.79 24.5208 198.762 24.1914C198.733 23.862 198.676 23.6615 198.59 23.5898C198.461 23.6328 198.232 23.9049 197.902 24.4062C197.573 24.8932 197.15 25.7598 196.635 27.0059C196.563 27.1634 196.456 27.2852 196.312 27.3711C196.169 27.457 196.019 27.5 195.861 27.5C195.618 27.5 195.424 27.4212 195.281 27.2637C195.138 27.0918 195.066 26.8984 195.066 26.6836C195.066 26.5833 195.088 26.4759 195.131 26.3613C195.775 24.8288 196.377 23.7044 196.936 22.9883C197.508 22.2578 198.074 21.8926 198.633 21.8926C198.962 21.8926 199.242 21.9785 199.471 22.1504C199.7 22.3079 199.879 22.5228 200.008 22.7949C200.151 23.0671 200.251 23.3678 200.309 23.6973C200.38 24.0267 200.416 24.3633 200.416 24.707C200.416 24.9648 200.395 25.3659 200.352 25.9102C200.323 26.4544 200.28 27.0417 200.223 27.6719C200.165 28.2878 200.108 28.9036 200.051 29.5195C200.008 30.1354 199.965 30.651 199.922 31.0664Z" fill="white"/>
</svg>
