<svg width="41" height="41" viewBox="0 0 41 41" fill="none" xmlns="http://www.w3.org/2000/svg">
<path d="M16.6562 3.84375C23.7185 3.84375 29.4687 9.594 29.4687 16.6562C29.4687 19.7248 28.3925 22.5372 26.5859 24.7448L36.7962 34.9525L34.9525 36.7975L24.7435 26.5872C22.4634 28.4565 19.6046 29.4751 16.6562 29.4688C9.59398 29.4688 3.84373 23.7185 3.84373 16.6562C3.84373 9.594 9.59398 3.84375 16.6562 3.84375ZM16.6562 6.40625C10.9803 6.40625 6.40623 10.9803 6.40623 16.6562C6.40623 22.3322 10.9803 26.9062 16.6562 26.9062C22.3322 26.9062 26.9062 22.3322 26.9062 16.6562C26.9062 10.9803 22.3322 6.40625 16.6562 6.40625Z" fill="#A07D28"/>
</svg>
